<mxfile host="app.diagrams.net" modified="2022-02-11T12:30:59.839Z" agent="5.0 (Macintosh; Intel Mac OS X 10_15_7) AppleWebKit/537.36 (KHTML, like Gecko) Chrome/96.0.4664.110 Safari/537.36" etag="KIe8ka_IzocsJwcnulOk" version="16.2.7" type="github">
  <diagram id="XWNrt-Vbh1cEqP4Xpc78" name="Page-1">
    <mxGraphModel dx="1018" dy="659" grid="1" gridSize="10" guides="1" tooltips="1" connect="1" arrows="1" fold="1" page="1" pageScale="1" pageWidth="827" pageHeight="1169" math="0" shadow="0">
      <root>
        <mxCell id="0" />
        <mxCell id="1" parent="0" />
        <mxCell id="1NhHP2AIvt2QWeO_nmHF-5" value="" style="rounded=0;whiteSpace=wrap;html=1;fillColor=#f5f5f5;strokeColor=#666666;fontColor=#333333;" vertex="1" parent="1">
          <mxGeometry x="860" y="335" width="80" height="204" as="geometry" />
        </mxCell>
        <mxCell id="1NhHP2AIvt2QWeO_nmHF-6" value="" style="edgeStyle=orthogonalEdgeStyle;rounded=0;orthogonalLoop=1;jettySize=auto;html=1;" edge="1" parent="1" source="1NhHP2AIvt2QWeO_nmHF-7" target="1NhHP2AIvt2QWeO_nmHF-11">
          <mxGeometry relative="1" as="geometry" />
        </mxCell>
        <mxCell id="1NhHP2AIvt2QWeO_nmHF-7" value="&lt;font style=&quot;font-size: 28px&quot;&gt;query&lt;br&gt;q&lt;br&gt;&lt;/font&gt;" style="rounded=0;whiteSpace=wrap;html=1;fillColor=#ffe6cc;strokeColor=#d79b00;" vertex="1" parent="1">
          <mxGeometry x="400" y="402" width="93" height="70" as="geometry" />
        </mxCell>
        <mxCell id="1NhHP2AIvt2QWeO_nmHF-21" style="edgeStyle=orthogonalEdgeStyle;rounded=0;orthogonalLoop=1;jettySize=auto;html=1;entryX=0.5;entryY=0;entryDx=0;entryDy=0;" edge="1" parent="1" source="1NhHP2AIvt2QWeO_nmHF-9" target="1NhHP2AIvt2QWeO_nmHF-11">
          <mxGeometry relative="1" as="geometry" />
        </mxCell>
        <mxCell id="1NhHP2AIvt2QWeO_nmHF-9" value="&lt;font style=&quot;font-size: 28px&quot;&gt;&amp;nbsp;documents&lt;br&gt;D={d&lt;sub&gt;1&lt;/sub&gt;,d&lt;/font&gt;&lt;span style=&quot;font-size: 23.3333px&quot;&gt;&lt;sub&gt;2&lt;/sub&gt;&lt;/span&gt;&lt;span style=&quot;font-size: 28px&quot;&gt;,...d&lt;/span&gt;&lt;span style=&quot;font-size: 23.3333px&quot;&gt;&lt;sub&gt;N&lt;/sub&gt;&lt;/span&gt;&lt;span style=&quot;font-size: 28px&quot;&gt;}&lt;/span&gt;" style="shape=cylinder3;whiteSpace=wrap;html=1;boundedLbl=1;backgroundOutline=1;size=15;fillColor=#dae8fc;strokeColor=#6c8ebf;" vertex="1" parent="1">
          <mxGeometry x="598" y="120" width="157" height="182" as="geometry" />
        </mxCell>
        <mxCell id="1NhHP2AIvt2QWeO_nmHF-24" style="edgeStyle=orthogonalEdgeStyle;rounded=0;orthogonalLoop=1;jettySize=auto;html=1;entryX=0;entryY=0.5;entryDx=0;entryDy=0;" edge="1" parent="1" source="1NhHP2AIvt2QWeO_nmHF-11" target="1NhHP2AIvt2QWeO_nmHF-5">
          <mxGeometry relative="1" as="geometry" />
        </mxCell>
        <mxCell id="1NhHP2AIvt2QWeO_nmHF-11" value="&lt;font style=&quot;font-size: 28px&quot;&gt;Retrieval System&lt;/font&gt;" style="rounded=1;whiteSpace=wrap;html=1;fillColor=#f8cecc;strokeColor=#b85450;" vertex="1" parent="1">
          <mxGeometry x="589.5" y="387" width="174" height="100" as="geometry" />
        </mxCell>
        <UserObject label="&lt;font style=&quot;font-size: 23px&quot;&gt;ranking of documents based on relevance&lt;/font&gt;" placeholders="1" name="Variable" id="1NhHP2AIvt2QWeO_nmHF-13">
          <mxCell style="text;html=1;strokeColor=none;fillColor=none;align=center;verticalAlign=middle;whiteSpace=wrap;overflow=hidden;" vertex="1" parent="1">
            <mxGeometry x="780" y="261" width="270" height="74" as="geometry" />
          </mxCell>
        </UserObject>
        <mxCell id="1NhHP2AIvt2QWeO_nmHF-14" value="" style="shape=waypoint;sketch=0;size=6;pointerEvents=1;points=[];fillColor=none;resizable=0;rotatable=0;perimeter=centerPerimeter;snapToPoint=1;strokeWidth=1;strokeColor=#787878;" vertex="1" parent="1">
          <mxGeometry x="873.25" y="424" width="40" height="40" as="geometry" />
        </mxCell>
        <mxCell id="1NhHP2AIvt2QWeO_nmHF-15" value="&lt;font&gt;&lt;sub&gt;&lt;font style=&quot;font-size: 28px&quot;&gt;d&lt;/font&gt;&lt;font style=&quot;font-size: 20px&quot;&gt;q,2&lt;/font&gt;&lt;/sub&gt;&lt;/font&gt;" style="ellipse;whiteSpace=wrap;html=1;aspect=fixed;" vertex="1" parent="1">
          <mxGeometry x="873.25" y="399.25" width="53.5" height="53.5" as="geometry" />
        </mxCell>
        <mxCell id="1NhHP2AIvt2QWeO_nmHF-17" value="" style="shape=waypoint;sketch=0;size=6;pointerEvents=1;points=[];fillColor=none;resizable=0;rotatable=0;perimeter=centerPerimeter;snapToPoint=1;strokeWidth=1;strokeColor=#787878;" vertex="1" parent="1">
          <mxGeometry x="878.75" y="444" width="40" height="40" as="geometry" />
        </mxCell>
        <mxCell id="1NhHP2AIvt2QWeO_nmHF-18" value="&lt;font&gt;&lt;sub&gt;&lt;font style=&quot;font-size: 28px&quot;&gt;d&lt;/font&gt;&lt;font style=&quot;font-size: 20px&quot;&gt;q,1&lt;/font&gt;&lt;/sub&gt;&lt;/font&gt;" style="ellipse;whiteSpace=wrap;html=1;aspect=fixed;" vertex="1" parent="1">
          <mxGeometry x="873.75" y="339" width="50" height="50" as="geometry" />
        </mxCell>
        <mxCell id="1NhHP2AIvt2QWeO_nmHF-25" value="&lt;font&gt;&lt;sub&gt;&lt;font style=&quot;font-size: 28px&quot;&gt;d&lt;/font&gt;&lt;font style=&quot;font-size: 20px&quot;&gt;q,N&lt;/font&gt;&lt;/sub&gt;&lt;/font&gt;" style="ellipse;whiteSpace=wrap;html=1;aspect=fixed;" vertex="1" parent="1">
          <mxGeometry x="875" y="484" width="50" height="50" as="geometry" />
        </mxCell>
        <mxCell id="1NhHP2AIvt2QWeO_nmHF-26" value="" style="shape=waypoint;sketch=0;size=6;pointerEvents=1;points=[];fillColor=none;resizable=0;rotatable=0;perimeter=centerPerimeter;snapToPoint=1;strokeWidth=1;strokeColor=#787878;" vertex="1" parent="1">
          <mxGeometry x="878.75" y="452.75" width="40" height="40" as="geometry" />
        </mxCell>
      </root>
    </mxGraphModel>
  </diagram>
</mxfile>
